<svg
   xmlns:dc="http://purl.org/dc/elements/1.1/"
   xmlns:cc="http://creativecommons.org/ns#"
   xmlns:rdf="http://www.w3.org/1999/02/22-rdf-syntax-ns#"
   xmlns:svg="http://www.w3.org/2000/svg"
   xmlns="http://www.w3.org/2000/svg"
   xmlns:sodipodi="http://sodipodi.sourceforge.net/DTD/sodipodi-0.dtd"
   xmlns:inkscape="http://www.inkscape.org/namespaces/inkscape"
   width="235"
   height="59"
   viewBox="0 0 62.177278 15.610426"
   version="1.1"
   id="svg3744"
   inkscape:version="0.92.3 (unknown)"
   sodipodi:docname="logo.svg">
  <defs
     id="defs3738" />
  <sodipodi:namedview
     id="base"
     pagecolor="#ffffff"
     bordercolor="#666666"
     borderopacity="1.0"
     inkscape:pageopacity="0.0"
     inkscape:pageshadow="2"
     inkscape:zoom="1.01"
     inkscape:cx="400"
     inkscape:cy="102.85714"
     inkscape:document-units="mm"
     inkscape:current-layer="layer1"
     showgrid="false"
     inkscape:window-width="1533"
     inkscape:window-height="845"
     inkscape:window-x="67"
     inkscape:window-y="27"
     inkscape:window-maximized="1" />
  <metadata
     id="metadata3741">
    <rdf:RDF>
      <cc:Work
         rdf:about="">
        <dc:format>image/svg+xml</dc:format>
        <dc:type
           rdf:resource="http://purl.org/dc/dcmitype/StillImage" />
        <dc:title></dc:title>
      </cc:Work>
    </rdf:RDF>
  </metadata>
  <g
     inkscape:label="Calque 1"
     inkscape:groupmode="layer"
     id="layer1"
     transform="translate(0,-281.38939)">
    <g
       aria-label="Léo &amp; Colette"
       style="font-style:normal;font-variant:normal;font-weight:normal;font-stretch:normal;font-size:14.11111069px;line-height:1.25;font-family:'Coffee At Midnight Demo';-inkscape-font-specification:'Coffee At Midnight Demo';letter-spacing:0px;word-spacing:0px;fill:#000000;fill-opacity:1;stroke:none;stroke-width:0.26458332"
       id="text3760"
       transform="matrix(0.58629429,0,0,0.58629429,-6.6561782,124.0167)">
      <path
         d="m 24.480862,286.69454 q 0.243064,0 0.411339,0.14958 0.168275,0.14958 0.186973,0.39264 0.0187,0.22437 -0.149578,0.39264 -0.149578,0.16828 -0.373945,0.18698 l -9.946922,0.57961 h -0.0187 q -0.205669,0 -0.392641,-0.14958 -0.168275,-0.13088 -0.168275,-0.39264 L 13.84214,275.17705 q 0,-0.22436 0.149578,-0.39264 0.168275,-0.16827 0.392642,-0.16827 h 0.0187 q 0.224367,0 0.392642,0.16827 0.168275,0.14958 0.168275,0.37395 l 0.168275,12.0971 z"
         style="font-size:18.69722176px;stroke-width:0.26458332"
         id="path3762"
         inkscape:connector-curvature="0" />
      <path
         d="m 29.016399,287.89116 q -0.80398,0 -1.458383,-0.29915 -1.047045,-0.43004 -1.645356,-1.42099 -0.635705,-1.02835 -0.635705,-2.54282 0,-0.59831 0.09349,-1.14053 0.112183,-0.56092 0.299155,-1.06574 0.411339,-0.97226 1.028348,-1.66406 0.635705,-0.6731 1.402291,-1.02834 0.785284,-0.37395 1.607961,-0.37395 h 0.0187 q 0.673099,0 1.252713,0.28046 0.598311,0.26176 1.028348,0.74789 0.448733,0.54222 0.691797,1.29011 0.243064,0.74789 0.243064,1.68275 0,0.41134 -0.411339,0.54222 l -6.001808,1.70144 q 0,0.0187 -0.0374,0.0187 0.149578,0.71049 0.523522,1.21532 0.373945,0.48613 0.972256,0.72919 0.411339,0.16828 0.860072,0.20567 0.448733,0.0187 0.897467,-0.0935 0.448733,-0.11218 0.878769,-0.35524 0.430036,-0.24307 0.785283,-0.59831 0.168275,-0.14958 0.392642,-0.14958 0.243064,0 0.411339,0.16827 0.149578,0.16828 0.149578,0.41134 0,0.22437 -0.168275,0.37395 -0.972256,0.97225 -2.243667,1.25271 -0.486128,0.11218 -0.934861,0.11218 z m 0.691797,-8.41375 q -0.579614,0 -1.159227,0.28046 -0.579614,0.26176 -1.047045,0.78529 -0.46743,0.52352 -0.766586,1.27141 -0.299156,0.72919 -0.33655,1.66405 l 5.403497,-1.53317 q -0.09349,-1.17793 -0.654403,-1.83233 -0.33655,-0.39264 -0.729191,-0.50483 -0.392642,-0.13088 -0.691797,-0.13088 z m -0.373944,-2.0006 q -0.20567,0.20567 -0.448733,0.18697 -0.224367,-0.0374 -0.373945,-0.18697 -0.13088,-0.14958 -0.149578,-0.37394 -0.0187,-0.24307 0.186973,-0.44874 l 2.187574,-1.62665 q 0.20567,-0.20567 0.430037,-0.16828 0.243063,0.0187 0.373944,0.18697 0.149578,0.14958 0.168275,0.37395 0.0187,0.22436 -0.186972,0.43003 z"
         style="font-size:18.69722176px;stroke-width:0.26458332"
         id="path3764"
         inkscape:connector-curvature="0" />
      <path
         d="m 37.675549,287.89116 q -1.645356,0 -2.673703,-1.3088 -0.430036,-0.54222 -0.691797,-1.27141 -0.261761,-0.74789 -0.317853,-1.58927 -0.05609,-0.91616 0.130881,-1.79493 0.186972,-0.89747 0.617008,-1.60796 0.486128,-0.82268 1.159228,-1.30881 0.729191,-0.52352 1.701447,-0.6357 0.934861,-0.0935 1.720144,0.28046 0.803981,0.37394 1.364898,1.19662 0.411338,0.61701 0.654402,1.3649 0.243064,0.74788 0.280459,1.55187 0.05609,0.80398 -0.09349,1.58926 -0.13088,0.76659 -0.46743,1.43969 -0.504825,0.99095 -1.364897,1.53317 -0.841375,0.52352 -1.944511,0.56091 z m 0.05609,-8.41375 q -0.80398,0.0935 -1.290108,0.54222 -0.46743,0.43004 -0.729191,0.86008 -0.33655,0.56091 -0.486128,1.2901 -0.149578,0.7292 -0.112184,1.47708 0.03739,0.54222 0.186973,1.10314 0.168275,0.54222 0.46743,0.99095 0.317853,0.44874 0.785283,0.74789 0.467431,0.28046 1.121834,0.28046 h 0.05609 q 0.486128,-0.0187 0.860073,-0.14958 0.392641,-0.14957 0.6731,-0.35524 0.280458,-0.22437 0.46743,-0.46743 0.20567,-0.26177 0.33655,-0.52353 0.261761,-0.52352 0.373945,-1.15922 0.112183,-0.63571 0.07479,-1.27142 -0.0374,-0.6544 -0.224367,-1.25271 -0.186972,-0.59831 -0.523522,-1.08444 -0.261761,-0.41134 -0.766586,-0.74789 -0.504825,-0.35524 -1.271412,-0.28046 z"
         style="font-size:18.69722176px;stroke-width:0.26458332"
         id="path3766"
         inkscape:connector-curvature="0" />
      <path
         d="m 51.001412,287.98465 q -1.570566,0 -2.35585,-0.56092 -0.691797,-0.48612 -0.785283,-1.3275 -0.03739,-0.29915 0.0187,-0.6544 0.05609,-0.35525 0.261761,-0.72919 0.224367,-0.39265 0.617009,-0.76659 0.411338,-0.39264 1.084438,-0.76659 0.243064,-0.13088 0.467431,-0.22436 0.243064,-0.0935 0.467431,-0.18697 -0.186973,-0.14958 -0.392642,-0.31786 -0.186972,-0.18697 -0.373945,-0.39264 -0.373944,-0.35525 -0.635705,-0.6918 -0.243064,-0.35524 -0.411339,-0.6731 -0.448733,-0.95355 -0.112183,-1.73884 0.205669,-0.43003 0.486127,-0.61701 0.280459,-0.18697 0.523523,-0.22436 0.860072,-0.16828 2.112786,0.6544 0.430036,0.28046 0.710494,0.54222 0.280458,0.24306 0.299156,0.26176 0.168275,0.14958 0.168275,0.39264 0.0187,0.22437 -0.149578,0.39264 -0.149578,0.16828 -0.392642,0.18698 -0.224366,0 -0.392641,-0.16828 -0.130881,-0.11218 -0.261761,-0.22437 -0.261762,-0.18697 -0.617009,-0.44873 -0.598311,-0.39264 -0.897466,-0.44873 -0.280459,-0.0561 -0.355248,-0.0374 -0.03739,0 -0.09349,0.0374 -0.05609,0.0187 -0.112183,0.16827 -0.149578,0.29916 0.09349,0.78529 0.243064,0.46743 0.822678,1.04704 0.261761,0.26176 0.523522,0.48613 0.261761,0.22436 0.467431,0.39264 0.224366,0.16827 0.355247,0.28046 0.13088,0.0935 0.13088,0.0935 0.149578,0.0935 0.20567,0.24307 0.07479,0.14958 0.03739,0.31785 -0.05609,0.35525 -0.411339,0.44873 0,0 -0.168275,0.0374 -0.149577,0.0374 -0.411339,0.13088 -0.243063,0.0748 -0.560916,0.20567 -0.299156,0.13088 -0.617009,0.29915 -1.47708,0.80398 -1.364897,1.79494 0.0187,0.33655 0.299156,0.52352 0.33655,0.22437 0.897466,0.29916 0.560917,0.0748 1.140531,0.0561 0.598311,-0.0374 1.121833,-0.11219 0.54222,-0.0935 0.822678,-0.14957 0.224367,-0.0561 0.411339,0.0748 0.205669,0.11219 0.261761,0.33655 0.05609,0.24307 -0.07479,0.44874 -0.112183,0.18697 -0.33655,0.22436 -0.03739,0.0187 -0.560917,0.13089 -0.523522,0.0935 -1.271411,0.14957 -0.186972,0 -0.355247,0 -0.168275,0.0187 -0.33655,0.0187 z m 0.33655,4.65561 q -0.224366,0 -0.392641,-0.14958 -0.149578,-0.14958 -0.168275,-0.37394 l -0.149578,-2.91677 q -0.0187,-0.24306 0.13088,-0.41134 0.168275,-0.16827 0.392642,-0.18697 0.243064,-0.0187 0.411339,0.13088 0.168275,0.16827 0.186972,0.41134 l 0.149578,2.91676 q 0.0187,0.22437 -0.149578,0.39265 -0.149578,0.16827 -0.373944,0.18697 z m -1.028347,-15.44391 q -0.224367,0 -0.392642,-0.14957 -0.149577,-0.16828 -0.168275,-0.39265 l -0.07479,-2.28106 q 0,-0.24306 0.149578,-0.41134 0.149578,-0.16827 0.392642,-0.16827 0.243064,-0.0187 0.392642,0.14958 0.168275,0.14957 0.186972,0.37394 l 0.07479,2.29976 q 0.0187,0.22437 -0.149578,0.39264 -0.149578,0.16828 -0.392642,0.18697 z"
         style="font-size:18.69722176px;stroke-width:0.26458332"
         id="path3768"
         inkscape:connector-curvature="0" />
      <path
         d="m 70.353034,283.5908 q 0.205669,0.13088 0.243064,0.35525 0.05609,0.22437 -0.07479,0.43004 -1.140531,1.81363 -2.6924,2.72979 -1.290109,0.78528 -2.711097,0.78528 -0.186973,0 -0.280459,-0.0187 -1.084439,-0.0561 -2.0193,-0.59831 -0.916164,-0.50483 -1.607961,-1.42099 -0.822678,-1.14053 -1.084439,-2.67371 -0.261761,-1.62665 0.186973,-3.44028 0.598311,-2.35585 1.944511,-3.70205 1.234016,-1.23402 2.804583,-1.4023 1.14053,-0.11218 2.131483,0.33655 0.990953,0.48613 1.458383,1.4023 0.112184,0.20566 0.0374,0.43003 -0.07479,0.22437 -0.280458,0.31785 -0.20567,0.11219 -0.430037,0.0374 -0.224366,-0.0748 -0.317852,-0.28046 -0.317853,-0.59831 -0.990953,-0.89747 -0.6731,-0.31785 -1.477081,-0.22436 -1.327502,0.14957 -2.337152,1.27141 -0.990953,1.12183 -1.458384,2.99155 -0.373944,1.51448 -0.186972,2.84198 0.186972,1.3275 0.916164,2.33715 0.523522,0.7105 1.234017,1.12184 0.710494,0.39264 1.533172,0.43003 1.290108,0.0935 2.505428,-0.6731 1.215319,-0.78528 2.168877,-2.29975 0.130881,-0.20567 0.355248,-0.24307 0.224366,-0.0561 0.430036,0.0561 z"
         style="font-size:18.69722176px;stroke-width:0.26458332"
         id="path3770"
         inkscape:connector-curvature="0" />
      <path
         d="m 75.435173,287.89116 q -1.645355,0 -2.673702,-1.3088 -0.430037,-0.54222 -0.691798,-1.27141 -0.261761,-0.74789 -0.317852,-1.58927 -0.05609,-0.91616 0.13088,-1.79493 0.186972,-0.89747 0.617008,-1.60796 0.486128,-0.82268 1.159228,-1.30881 0.729192,-0.52352 1.701447,-0.6357 0.934861,-0.0935 1.720145,0.28046 0.80398,0.37394 1.364897,1.19662 0.411339,0.61701 0.654403,1.3649 0.243064,0.74788 0.280458,1.55187 0.05609,0.80398 -0.09349,1.58926 -0.130881,0.76659 -0.467431,1.43969 -0.504825,0.99095 -1.364897,1.53317 -0.841375,0.52352 -1.944511,0.56091 z m 0.05609,-8.41375 q -0.803981,0.0935 -1.290108,0.54222 -0.467431,0.43004 -0.729192,0.86008 -0.33655,0.56091 -0.486128,1.2901 -0.149578,0.7292 -0.112183,1.47708 0.03739,0.54222 0.186972,1.10314 0.168275,0.54222 0.467431,0.99095 0.317852,0.44874 0.785283,0.74789 0.467431,0.28046 1.121833,0.28046 h 0.05609 q 0.486128,-0.0187 0.860072,-0.14958 0.392642,-0.14957 0.6731,-0.35524 0.280458,-0.22437 0.467431,-0.46743 0.205669,-0.26177 0.33655,-0.52353 0.261761,-0.52352 0.373944,-1.15922 0.112183,-0.63571 0.07479,-1.27142 -0.03739,-0.6544 -0.224367,-1.25271 -0.186972,-0.59831 -0.523522,-1.08444 -0.261761,-0.41134 -0.766586,-0.74789 -0.504825,-0.35524 -1.27141,-0.28046 z"
         style="font-size:18.69722176px;stroke-width:0.26458332"
         id="path3772"
         inkscape:connector-curvature="0" />
      <path
         d="m 81.218748,273.64388 q 0.243064,0 0.392642,0.16828 0.168275,0.14957 0.186972,0.37394 l 0.168275,13.08806 q 0.0187,0.24306 -0.149578,0.41133 -0.168275,0.16828 -0.392641,0.16828 h -0.0187 q -0.224366,0 -0.392641,-0.14958 -0.149578,-0.16827 -0.168275,-0.41134 L 80.676529,274.2048 q -0.0187,-0.22437 0.149578,-0.39264 0.168275,-0.16828 0.392641,-0.16828 z"
         style="font-size:18.69722176px;stroke-width:0.26458332"
         id="path3774"
         inkscape:connector-curvature="0" />
      <path
         d="m 86.605306,287.89116 q -0.80398,0 -1.458383,-0.29915 -1.047044,-0.43004 -1.645355,-1.42099 -0.635706,-1.02835 -0.635706,-2.54282 0,-0.59831 0.09349,-1.14053 0.112183,-0.56092 0.299156,-1.06574 0.411339,-0.97226 1.028347,-1.66406 0.635705,-0.6731 1.402291,-1.02834 0.785284,-0.37395 1.607962,-0.37395 h 0.0187 q 0.6731,0 1.252714,0.28046 0.598311,0.26176 1.028347,0.74789 0.448733,0.54222 0.691797,1.29011 0.243064,0.74789 0.243064,1.68275 0,0.41134 -0.411339,0.54222 l -6.001808,1.70144 q 0,0.0187 -0.0374,0.0187 0.149578,0.71049 0.523523,1.21532 0.373944,0.48613 0.972255,0.72919 0.411339,0.16828 0.860072,0.20567 0.448734,0.0187 0.897467,-0.0935 0.448733,-0.11218 0.878769,-0.35524 0.430036,-0.24307 0.785284,-0.59831 0.168275,-0.14958 0.392641,-0.14958 0.243064,0 0.411339,0.16827 0.149578,0.16828 0.149578,0.41134 0,0.22437 -0.168275,0.37395 -0.972256,0.97225 -2.243667,1.25271 -0.486127,0.11218 -0.934861,0.11218 z m 0.691798,-8.41375 q -0.579614,0 -1.159228,0.28046 -0.579614,0.26176 -1.047045,0.78529 -0.46743,0.52352 -0.766586,1.27141 -0.299155,0.72919 -0.33655,1.66405 l 5.403497,-1.53317 q -0.09349,-1.17793 -0.654402,-1.83233 -0.33655,-0.39264 -0.729192,-0.50483 -0.392642,-0.13088 -0.691797,-0.13088 z"
         style="font-size:18.69722176px;stroke-width:0.26458332"
         id="path3776"
         inkscape:connector-curvature="0" />
      <path
         d="m 98.854321,284.61915 q 0.0187,0.59831 -0.149578,1.15923 -0.149578,0.54222 -0.467431,0.97225 -0.299155,0.43004 -0.710494,0.7105 -0.411339,0.26176 -0.897467,0.37394 -0.261761,0.0561 -0.523522,0.0561 -0.747889,0 -1.364897,-0.39264 -0.934861,-0.56091 -1.477081,-1.79493 0,0 -0.0187,-0.0187 -0.785283,-1.96321 -0.729191,-5.44089 l -0.691798,0.0748 q -0.0187,0 -0.03739,0.0187 0,0 -0.0374,0 -0.205669,0 -0.355247,-0.14958 -0.149578,-0.14958 -0.186972,-0.35525 -0.03739,-0.22437 0.09349,-0.39264 0.149578,-0.18697 0.392642,-0.22437 l 0.860072,-0.11218 v -0.13088 q 0.05609,-0.80398 0.112183,-1.49578 0.07479,-0.71049 0.130881,-1.23402 0.07479,-0.52352 0.13088,-0.82267 0.05609,-0.31786 0.05609,-0.33655 0.03739,-0.24307 0.224367,-0.37395 0.186972,-0.13088 0.411339,-0.0935 0.243064,0.0374 0.373944,0.24306 0.130881,0.18697 0.09349,0.41134 0,0.0187 -0.05609,0.31785 -0.03739,0.28046 -0.112183,0.78529 -0.05609,0.50482 -0.13088,1.17792 -0.05609,0.6544 -0.09349,1.42099 l 3.702049,-0.46743 q 0.224367,-0.0374 0.392642,0.11218 0.186972,0.14958 0.224367,0.37395 0.03739,0.24306 -0.112184,0.43003 -0.149577,0.16828 -0.373944,0.20567 l -3.889022,0.46743 q -0.03739,1.3649 0.09349,2.74849 0.130881,1.3649 0.560917,2.41195 0.355247,0.82267 0.916163,1.23401 0.560917,0.39264 1.177925,0.24307 0.523523,-0.11219 0.934862,-0.63571 0.430036,-0.52352 0.411338,-1.45838 0,-0.24307 0.149578,-0.41134 0.168275,-0.16828 0.411339,-0.16828 0.243064,0 0.392642,0.16828 0.168275,0.14958 0.168275,0.39264 z"
         style="font-size:18.69722176px;stroke-width:0.26458332"
         id="path3778"
         inkscape:connector-curvature="0" />
      <path
         d="m 106.9248,284.61915 q 0.0187,0.59831 -0.14958,1.15923 -0.14957,0.54222 -0.46743,0.97225 -0.29915,0.43004 -0.71049,0.7105 -0.41134,0.26176 -0.89747,0.37394 -0.26176,0.0561 -0.52352,0.0561 -0.74789,0 -1.3649,-0.39264 -0.93486,-0.56091 -1.47708,-1.79493 0,0 -0.0187,-0.0187 -0.78528,-1.96321 -0.72919,-5.44089 l -0.691794,0.0748 q -0.0187,0 -0.03739,0.0187 0,0 -0.03739,0 -0.20567,0 -0.355247,-0.14958 -0.149578,-0.14958 -0.186973,-0.35525 -0.03739,-0.22437 0.09349,-0.39264 0.149578,-0.18697 0.392642,-0.22437 l 0.860072,-0.11218 v -0.13088 q 0.0561,-0.80398 0.11218,-1.49578 0.0748,-0.71049 0.13088,-1.23402 0.0748,-0.52352 0.13088,-0.82267 0.0561,-0.31786 0.0561,-0.33655 0.0374,-0.24307 0.22437,-0.37395 0.18697,-0.13088 0.41134,-0.0935 0.24306,0.0374 0.37394,0.24306 0.13088,0.18697 0.0935,0.41134 0,0.0187 -0.0561,0.31785 -0.0374,0.28046 -0.11219,0.78529 -0.0561,0.50482 -0.13088,1.17792 -0.0561,0.6544 -0.0935,1.42099 l 3.70205,-0.46743 q 0.22436,-0.0374 0.39264,0.11218 0.18697,0.14958 0.22437,0.37395 0.0374,0.24306 -0.11219,0.43003 -0.14958,0.16828 -0.37394,0.20567 l -3.88902,0.46743 q -0.0374,1.3649 0.0935,2.74849 0.13088,1.3649 0.56092,2.41195 0.35525,0.82267 0.91616,1.23401 0.56092,0.39264 1.17793,0.24307 0.52352,-0.11219 0.93486,-0.63571 0.43003,-0.52352 0.41134,-1.45838 0,-0.24307 0.14958,-0.41134 0.16827,-0.16828 0.41133,-0.16828 0.24307,0 0.39265,0.16828 0.16827,0.14958 0.16827,0.39264 z"
         style="font-size:18.69722176px;stroke-width:0.26458332"
         id="path3780"
         inkscape:connector-curvature="0" />
      <path
         d="m 111.21844,287.89116 q -0.80398,0 -1.45838,-0.29915 -1.04705,-0.43004 -1.64536,-1.42099 -0.6357,-1.02835 -0.6357,-2.54282 0,-0.59831 0.0935,-1.14053 0.11219,-0.56092 0.29916,-1.06574 0.41134,-0.97226 1.02835,-1.66406 0.6357,-0.6731 1.40229,-1.02834 0.78528,-0.37395 1.60796,-0.37395 h 0.0187 q 0.6731,0 1.25271,0.28046 0.59831,0.26176 1.02835,0.74789 0.44873,0.54222 0.6918,1.29011 0.24306,0.74789 0.24306,1.68275 0,0.41134 -0.41134,0.54222 l -6.00181,1.70144 q 0,0.0187 -0.0374,0.0187 0.14958,0.71049 0.52352,1.21532 0.37394,0.48613 0.97226,0.72919 0.41133,0.16828 0.86007,0.20567 0.44873,0.0187 0.89746,-0.0935 0.44874,-0.11218 0.87877,-0.35524 0.43004,-0.24307 0.78529,-0.59831 0.16827,-0.14958 0.39264,-0.14958 0.24306,0 0.41134,0.16827 0.14958,0.16828 0.14958,0.41134 0,0.22437 -0.16828,0.37395 -0.97226,0.97225 -2.24367,1.25271 -0.48612,0.11218 -0.93486,0.11218 z m 0.6918,-8.41375 q -0.57961,0 -1.15923,0.28046 -0.57961,0.26176 -1.04704,0.78529 -0.46743,0.52352 -0.76659,1.27141 -0.29915,0.72919 -0.33655,1.66405 l 5.4035,-1.53317 q -0.0935,-1.17793 -0.6544,-1.83233 -0.33655,-0.39264 -0.7292,-0.50483 -0.39264,-0.13088 -0.69179,-0.13088 z"
         style="font-size:18.69722176px;stroke-width:0.26458332"
         id="path3782"
         inkscape:connector-curvature="0" />
    </g>
  </g>
</svg>
